Where The Day Takes You 1991 DVDRip XviD AC3 titler

Source: DVD5
 
http://www.imdb.com/title/tt0105810/
 
http://www.rottentomatoes.com/m/where_the_day_takes_you/
 
http://en.wikipedia.org/wiki/Where_the_Day_Takes_You

Opening scene:

Subtitles: English, English (hearing impaired)

CAST:
--------
Dermot Mulroney, Sean Astin, Balthazar Getty, Lara Flynn Boyle, Will Smith, Peter Dobson, Kyle MacLachlan, Laura San Giacomo, James LeGros, Adam Baldwin, Alyssa Milano, David Arquette, Stephen Tobolowsky, Christian Slater...

PLOT:
-------
A group of teen-age runaways try to survive in the streets of Los Angeles. Drugs, prostitution, violence and bureaucratic indifference all pose threats to the kids, who nevertheless prefer this harsh life to going back to their families. Heather, somewhat older, provides some leadership and mothering to the kids.

   General
--------------
      Format : AVI
      Format/Info : Audio Video Interleave
      Format profile : OpenDML
      File size : 1.41 GiB
      Duration : 1h 38mn
      Overall bit rate : 2040 Kbps

   Video
--------------
      Format : MPEG-4 Visual
      Format profile : Advanced Simple@L5
      Format settings, BVOP : 1
      Format settings, QPel : No
      Format settings, GMC : No warppoints
      Format settings, Matrix : Default (MPEG)
      Codec ID : XVID
      Codec ID/Hint : XviD
      Duration : 1h 38mn
      Bit rate : 1721 Kbps
      Width : 704 pixels
      Height : 528 pixels
      Display aspect ratio : 4:3
      Frame rate : 25.000 fps
      Color space : YUV
      Chroma subsampling : 4:2:0
      Bit depth : 8 bits
      Scan type : Progressive
      Compression mode : Lossy
      Bits/(Pixel*Frame) : 0.185
      Stream size : 1.19 GiB (84%)
      Writing library : XviD 58

   Audio
----------------
      Format : AC-3
      Format/Info : Audio Coding 3
      Format profile : Dolby Digital
      Mode extension : CM (complete main)
      Format settings, Endianness : Big
      Codec ID : 2000
      Duration : 1h 38mn
      Bit rate mode : Constant
      Bit rate : 192 Kbps
      Channel(s) : 2 channels
      Channel positions : Front: L R
      Sampling rate : 48.0 KHz
      Bit depth : 16 bits
      Compression mode : Lossy
      Stream size : 136 MiB (9%)
      Alignment : Aligned on interleaves
      Interleave, duration : 32 ms (0.80 video frame)